<svg xmlns="http://www.w3.org/2000/svg" style="display: none;">
  <symbol id="icon-heart" viewBox="0 0 50 50">
    <path d="M25 48C23.3 48 21.7 47.4 20.5 46.5L3.7 31.5C-2.7 26.9-2.3 17.8 4.1 12.5 8.6 7.6 16.3 8.2 20.5 13.5L25 18.1L29.5 13.5C33.7 8.2 41.4 7.6 45.9 12.5 52.3 17.8 51.9 26.9 45.5 31.5L28.7 46.5C27.5 47.4 25.9 48 25 48ZM25 2C22.5 2 20.1 2.6 18 3.7C15.9 4.9 14.3 6.6 13.3 8.6C12.3 10.6 12 12.8 12.5 15C13 17.2 14.3 19.2 16.3 20.7L25 28.2L33.7 20.7C35.7 19.2 37 17.2 37.5 15C38 12.8 37.7 10.6 36.7 8.6C35.7 6.6 34.1 4.9 32 3.7C29.9 2.6 27.5 2 25 2Z"/>
  </symbol>
  <symbol id="icon-star" viewBox="0 0 24 24">
    <path d="M12 2l3.09 6.26L22 9.27l-5 4.87L18.18 22 12 18.27 5.82 22 7 14.14 2 9.27l6.91-1.01L12 2z"/>
  </symbol>
  <!-- Add more symbols as needed -->
</svg>